<svg width="24" height="24" viewBox="0 0 24 24" fill="none" xmlns="http://www.w3.org/2000/svg">
<g clip-path="url(#clip0_2548_736)">
<path d="M15.4 12.8H13C12.56 12.8 12.2 13.16 12.2 13.6V16C12.2 16.44 12.56 16.8 13 16.8H15.4C15.84 16.8 16.2 16.44 16.2 16V13.6C16.2 13.16 15.84 12.8 15.4 12.8ZM15.4 4.8V5.6H9V4.8C9 4.36 8.64 4 8.2 4C7.76 4 7.4 4.36 7.4 4.8V5.6H6.6C5.712 5.6 5.008 6.32 5.008 7.2L5 18.4C5 19.28 5.712 20 6.6 20H17.8C18.68 20 19.4 19.28 19.4 18.4V7.2C19.4 6.32 18.68 5.6 17.8 5.6H17V4.8C17 4.36 16.64 4 16.2 4C15.76 4 15.4 4.36 15.4 4.8ZM17 18.4H7.4C6.96 18.4 6.6 18.04 6.6 17.6V9.6H17.8V17.6C17.8 18.04 17.44 18.4 17 18.4Z" fill="white"/>
</g>
<defs>
<clipPath id="clip0_2548_736">
<rect width="24" height="24" fill="white"/>
</clipPath>
</defs>
</svg>
