<svg width="24" height="24" viewBox="0 0 24 24" fill="none" xmlns="http://www.w3.org/2000/svg">
<g clip-path="url(#clip0_2548_750)">
<path d="M12.985 17.8143C12.665 18.0632 12.2116 18.0632 11.8916 17.8143L6.42453 13.5651C6.10451 13.3162 5.66003 13.3162 5.34001 13.5651C4.88664 13.9207 4.88664 14.6052 5.34001 14.9608L11.3493 19.6366C11.9894 20.1345 12.8872 20.1345 13.5361 19.6366L19.5454 14.9608C19.9988 14.6052 19.9988 13.9207 19.5454 13.5651L19.5365 13.5562C19.2165 13.3073 18.7721 13.3073 18.452 13.5562L12.985 17.8143ZM13.545 15.1297L19.5543 10.4538C20.0077 10.0982 20.0077 9.40482 19.5543 9.04924L13.545 4.37336C12.905 3.87555 12.0071 3.87555 11.3582 4.37336L5.3489 9.05813C4.89553 9.41371 4.89553 10.1071 5.3489 10.4627L11.3582 15.1386C11.9982 15.6364 12.905 15.6364 13.545 15.1297Z" fill="white"/>
</g>
<defs>
<clipPath id="clip0_2548_750">
<rect width="24" height="24" fill="white"/>
</clipPath>
</defs>
</svg>
