<svg width="24" height="24" viewBox="0 0 24 24" fill="none" xmlns="http://www.w3.org/2000/svg">
<g clip-path="url(#clip0_2548_758)">
<path d="M16.8985 8.86459C16.5784 8.54452 16.0594 8.54452 15.7394 8.86459C15.4197 9.18423 15.4192 9.70231 15.7382 10.0226L17.2798 11.5701H9.74883C9.29526 11.5701 8.92757 11.9378 8.92757 12.3913C8.92757 12.8449 9.29526 13.2126 9.74883 13.2126H17.2798L15.7399 14.7525C15.4198 15.0726 15.4189 15.5913 15.7379 15.9125C16.0584 16.2353 16.5803 16.2363 16.902 15.9146L19.6993 13.1172C20.1002 12.7163 20.1002 12.0664 19.6993 11.6654L16.8985 8.86459ZM5.64252 6.64252H11.3913C11.8449 6.64252 12.2126 6.27483 12.2126 5.82126C12.2126 5.36769 11.8449 5 11.3914 5H5.64252C4.73913 5 4 5.73913 4 6.64252V18.1402C4 19.0436 4.73913 19.7827 5.64252 19.7827H11.3913C11.8449 19.7827 12.2126 19.415 12.2126 18.9614C12.2126 18.5079 11.8449 18.1402 11.3914 18.1402H5.64252V6.64252Z" fill="white"/>
</g>
<defs>
<clipPath id="clip0_2548_758">
<rect width="24" height="24" fill="white"/>
</clipPath>
</defs>
</svg>
