<svg width="16" height="16" viewBox="0 0 16 16" fill="none" xmlns="http://www.w3.org/2000/svg">
<g clip-path="url(#clip0_1031_415)">
<path d="M16 8C16 12.4183 12.4183 16 8 16C3.58172 16 0 12.4183 0 8C0 3.58172 3.58172 0 8 0C12.4183 0 16 3.58172 16 8Z" fill="#1CA139"/>
<path fill-rule="evenodd" clip-rule="evenodd" d="M6.46577 7.31898C6.47833 7.28604 6.51484 7.26908 6.54824 7.28046C6.65373 7.3164 6.87785 7.3897 7.05006 7.4251C7.25597 7.46741 7.61224 7.49311 7.61224 7.49311C7.61224 7.49311 7.81534 6.55805 8.04195 5.99255C8.06702 5.93 8.09062 5.87025 8.1133 5.81279L8.11337 5.81262L8.1134 5.81255C8.28852 5.3691 8.40973 5.06218 8.7361 4.65872L8.73752 4.65696C9.0024 4.32953 9.16231 4.13185 9.52942 3.92511C9.91431 3.70836 10.0655 3.625 10.6202 3.625C11.1749 3.625 11.7984 3.96246 12.0085 4.4253C12.2186 4.88813 12.1693 5.60736 11.783 6.18075C11.2813 6.92522 10.1627 7.55848 10.1627 7.55848L9.19887 7.99329C9.19887 7.99329 9.0662 8.48363 8.96749 8.79359C8.85009 9.16221 8.77956 9.36782 8.63694 9.72727C8.62809 9.74957 8.61949 9.77127 8.61111 9.79243L8.6108 9.79321C8.48502 10.1106 8.40659 10.3086 8.24028 10.6276C8.17842 10.7463 8.07501 10.9277 8.07501 10.9277C8.07501 10.9277 8.61585 11.1203 8.96749 11.2278C9.94276 11.526 11.4275 11.7706 11.8758 11.841C11.905 11.8456 11.9069 11.8856 11.8781 11.8921C11.4085 11.9981 9.77679 12.3243 8.74105 12.0038L8.7408 12.0037L8.7407 12.0037C8.59657 11.9595 8.44326 11.9126 8.27334 11.8614C7.97596 11.7719 7.51308 11.628 7.51308 11.628C7.51308 11.628 7.22196 11.8498 7.01726 11.9614C6.67964 12.1456 6.4684 12.2206 6.09172 12.2949C5.68611 12.3748 5.43915 12.4104 5.03397 12.3282C5.0204 12.3255 5.00699 12.3228 4.99375 12.3201L4.99233 12.3198L4.99118 12.3196C4.65728 12.2523 4.42677 12.2058 4.17455 11.9614C4.06838 11.8586 4.00871 11.7943 3.94316 11.6613C3.87205 11.5171 3.8406 11.4222 3.844 11.2612C3.84713 11.1127 3.87115 11.0239 3.94316 10.8944C4.02355 10.7498 4.10303 10.6848 4.24065 10.5943C4.42192 10.475 4.55694 10.4349 4.76953 10.3942C4.97067 10.3556 5.08502 10.3572 5.25231 10.3596L5.25241 10.3596C5.29631 10.3602 5.34385 10.3608 5.39757 10.3608C5.65607 10.3608 5.83719 10.3821 6.09172 10.4275C6.31696 10.4678 6.65365 10.5943 6.65365 10.5943C6.65365 10.5943 6.82112 10.2107 6.91809 9.96069C7.07727 9.55034 7.15735 9.31604 7.28169 8.89363C7.38419 8.54543 7.51308 7.99329 7.51308 7.99329C7.51308 7.99329 6.99479 7.96995 6.68671 7.85991C6.58386 7.82317 6.44699 7.75625 6.37401 7.71935C6.3448 7.70457 6.33186 7.67021 6.34352 7.63964L6.46577 7.31898ZM11.0499 4.32526C11.0499 4.32526 10.3558 3.95846 9.82691 5.35898C9.53179 6.1405 9.26498 7.35972 9.26498 7.35972C9.26498 7.35972 10.3322 6.89724 10.7784 6.34259C10.9262 6.15896 11.0804 5.90138 11.1086 5.83747C11.3606 5.26727 11.6444 4.62511 11.0499 4.32526ZM6.25675 11.2265C6.25675 11.2265 5.66176 10.9907 5.23205 10.9907C4.94163 10.9907 4.58102 10.9985 4.5379 11.2932C4.49135 11.6114 4.90625 11.7267 5.23205 11.7267C5.66176 11.7267 6.25675 11.2265 6.25675 11.2265Z" fill="white"/>
</g>
<defs>
<clipPath id="clip0_1031_415">
<rect width="16" height="16" fill="white"/>
</clipPath>
</defs>
</svg>
