<svg width="24" height="24" viewBox="0 0 24 24" fill="none" xmlns="http://www.w3.org/2000/svg">
<g clip-path="url(#clip0_2548_729)">
<path d="M11.1721 14.5004C11.4392 14.2334 11.4325 13.786 11.1454 13.5323C9.43624 11.9901 8.42141 10.9419 8.70183 9.89366C8.84871 9.35286 9.32941 9.00569 9.89024 9.00569C10.6313 9.00569 10.9184 9.43966 11.6795 10.341H12.3004C13.0482 9.46636 13.3219 9.00569 14.0897 9.00569C14.6706 9.00569 15.1246 9.36622 15.2715 9.88698C15.5051 9.86028 15.7255 9.84692 15.9391 9.84692C16.1795 9.84692 16.4065 9.86695 16.6268 9.90033C16.4666 8.62513 15.4184 7.67039 14.0964 7.67039C14.0163 7.67039 13.9429 7.69042 13.8627 7.6971C14.0363 7.22307 14.0697 6.6756 13.7426 6.07472C13.4555 5.53392 12.928 5.11998 12.3271 5.02651C11.072 4.82622 9.99038 5.78763 9.99038 7.00275C9.99038 7.24978 10.0438 7.47678 10.1239 7.6971C10.0438 7.69042 9.97035 7.67039 9.89024 7.67039C8.44812 7.67039 7.3198 8.79872 7.3198 10.2408C7.3198 11.7297 8.47482 12.9181 10.2574 14.5205C10.5178 14.7608 10.9251 14.7474 11.1721 14.5004Z" fill="white"/>
<path d="M19.6846 15.8491C19.3241 15.2682 18.8367 15.0279 18.3426 14.9411C18.3894 14.8743 18.4428 14.8209 18.4828 14.7541C19.2039 13.5056 18.79 11.9634 17.5415 11.2423C16.2529 10.5012 14.6439 10.9085 12.3672 11.6429C12.0267 11.7497 11.8398 12.1102 11.9266 12.4507C12.0267 12.818 12.4139 13.0316 12.7811 12.9114C14.971 12.2037 16.3864 11.8432 17.1542 12.611C17.5481 13.0049 17.6082 13.5991 17.3278 14.0865C16.9539 14.7274 16.4398 14.7541 15.2781 14.9678L14.9644 15.5086C15.3516 16.5902 15.612 17.0642 15.2247 17.7252C14.8709 18.3327 14.1498 18.5263 13.5356 18.1792C13.4955 18.1591 13.4621 18.1191 13.4221 18.0924C13.2218 18.5397 12.9948 18.9202 12.7344 19.2474C12.7344 19.2541 12.7344 19.2541 12.7344 19.2541C14.0029 20.0819 15.632 19.6814 16.3798 18.3928C16.4198 18.326 16.4398 18.2526 16.4732 18.1792C16.6201 18.3594 16.7937 18.5197 17.0073 18.6398C18.0622 19.2474 19.4376 18.7934 19.8849 17.605C20.0986 17.0308 20.0051 16.3698 19.6846 15.8491Z" fill="white"/>
<path d="M12.0601 14.3736C11.5794 16.6302 11.1788 18.0323 10.1306 18.3127C9.5898 18.4596 9.049 18.2125 8.76859 17.7252C8.39471 17.0842 8.63506 16.6169 9.02897 15.5086L8.72185 14.9678C7.58685 14.7608 7.05274 14.7474 6.67218 14.0865C6.31833 13.4789 6.51194 12.7512 7.12618 12.3973C7.18627 12.364 7.25303 12.3439 7.3198 12.3239C7.13953 12.0435 6.98597 11.743 6.87247 11.4092C6.71224 11.3358 6.63212 11.3024 6.47188 11.2356C5.21671 11.95 4.79609 13.5056 5.51715 14.7541C5.55721 14.8209 5.61062 14.8743 5.65736 14.9411C5.15662 15.0279 4.66924 15.2682 4.31539 15.8491C3.99492 16.3698 3.90145 17.0308 4.11509 17.605C4.56909 18.7934 5.94444 19.2474 6.99265 18.6398C7.2063 18.5197 7.37988 18.3594 7.52677 18.1792C7.56015 18.2526 7.58018 18.326 7.62024 18.3928C8.3413 19.6413 9.88356 20.0552 11.1321 19.3342C12.4206 18.5931 12.8746 16.9907 13.3754 14.654C13.4488 14.3068 13.2351 13.9596 12.8946 13.8728C12.5141 13.7727 12.1402 13.9997 12.0601 14.3736Z" fill="white"/>
</g>
<defs>
<clipPath id="clip0_2548_729">
<rect width="24" height="24" fill="white"/>
</clipPath>
</defs>
</svg>
