<svg width="24" height="24" viewBox="0 0 24 24" fill="none" xmlns="http://www.w3.org/2000/svg">
<g clip-path="url(#clip0_2548_722)">
<path d="M15.6 11.6C16.704 11.6 17.592 10.704 17.592 9.6C17.592 8.496 16.704 7.6 15.6 7.6C14.496 7.6 13.6 8.496 13.6 9.6C13.6 10.704 14.496 11.6 15.6 11.6ZM9.6 10.8C10.928 10.8 11.992 9.728 11.992 8.4C11.992 7.072 10.928 6 9.6 6C8.272 6 7.2 7.072 7.2 8.4C7.2 9.728 8.272 10.8 9.6 10.8ZM15.6 13.2C14.136 13.2 11.2 13.936 11.2 15.4V16.4C11.2 16.84 11.56 17.2 12 17.2H19.2C19.64 17.2 20 16.84 20 16.4V15.4C20 13.936 17.064 13.2 15.6 13.2ZM9.6 12.4C7.736 12.4 4 13.336 4 15.2V16.4C4 16.84 4.36 17.2 4.8 17.2H9.6V15.4C9.6 14.72 9.864 13.528 11.496 12.624C10.8 12.48 10.128 12.4 9.6 12.4Z" fill="white"/>
</g>
<defs>
<clipPath id="clip0_2548_722">
<rect width="24" height="24" fill="white"/>
</clipPath>
</defs>
</svg>
