<svg width="24" height="24" viewBox="0 0 24 24" fill="none" xmlns="http://www.w3.org/2000/svg">
<g clip-path="url(#clip0_2577_1521)">
<path d="M17.6476 6.35249C16.0159 4.72279 13.7036 3.78296 11.161 4.04291C7.48722 4.41285 4.46414 7.3923 4.05372 11.0616C3.50316 15.9107 7.25699 20 11.9918 20C15.1851 20 17.9279 18.1303 19.2092 15.4408C19.5295 14.771 19.049 14.0011 18.3083 14.0011C17.9379 14.0011 17.5875 14.2011 17.4274 14.531C16.2962 16.9606 13.5834 18.5003 10.6204 17.8404C8.39815 17.3505 6.60633 15.5408 6.13584 13.3212C5.29499 9.44193 8.248 6.00256 11.9918 6.00256C13.6535 6.00256 15.135 6.69243 16.2161 7.78223L14.7046 9.29196C14.0739 9.92184 14.5144 11.0016 15.4053 11.0016H18.999C19.5495 11.0016 20 10.5517 20 10.0018V6.41248C20 5.52264 18.9189 5.07273 18.2883 5.70261L17.6476 6.35249Z" fill="white"/>
</g>
<defs>
<clipPath id="clip0_2577_1521">
<rect width="24" height="24" fill="white"/>
</clipPath>
</defs>
</svg>
