<svg width="88" height="40" viewBox="0 0 88 40" fill="none" xmlns="http://www.w3.org/2000/svg">
<path fill-rule="evenodd" clip-rule="evenodd" d="M31.4176 28.6427C30.6669 28.798 30.171 28.9236 29.4551 28.6482C28.8702 28.4233 28.4521 28.2278 28.1917 27.6548C28.0316 27.3024 28.0525 26.6725 28.0525 26.6725C28.0525 26.6725 28.871 26.5593 29.2465 26.4942C29.622 26.4291 29.8891 26.3828 30.2966 26.2491C30.8095 26.0809 31.1055 25.9787 31.5589 25.6846C31.9185 25.4514 32.1014 25.2868 32.4005 24.979C32.7834 24.5849 33.0552 24.2638 33.242 23.85C33.4289 23.4362 33.802 22.2921 32.9604 21.1631C32.1189 20.0341 29.6171 19.9354 27.6307 20.5986C26.5333 20.965 25.9228 21.3331 25.1071 22.1565C24.1381 23.1347 23.4744 25.0245 23.424 25.2612C23.3736 25.498 23.0022 27.0847 23.8437 28.9249C24.6853 30.7651 29.3138 31.324 31.2774 30.4828C33.241 29.6417 34.3641 28.366 34.3641 28.366L34.2228 26.9492C34.2228 26.9492 32.669 28.3837 31.4176 28.6427ZM28.893 22.4332C28.0723 23.259 27.9112 25.2557 27.9112 25.2557C27.9112 25.2557 29.9532 24.7981 30.484 23.7598C30.8223 23.0981 31.2957 22.3366 30.7163 21.8687C30.1353 21.3995 29.454 21.8687 28.893 22.4332Z" fill="#A4D9B0"/>
<path d="M34.3641 28.366C34.3641 28.366 34.5469 29.3938 34.924 29.9128C35.8183 31.1432 37.2413 31.1292 38.711 30.7595C40.3941 30.3361 42.2185 28.366 42.2185 28.366L41.9369 27.0903C41.9369 27.0903 41.1928 28.2193 39.9733 28.2193C38.7538 28.2193 38.8279 26.2347 38.8279 26.2347L39.6928 22.4332C39.8647 22.1632 40.3951 22.0154 40.3951 22.0154C40.3951 22.0154 40.9136 21.9976 41.2356 21.9245C41.606 21.8403 41.6564 21.4453 41.6564 21.0219C41.6564 20.6691 41.3759 20.4574 40.9551 20.4574C40.6087 20.4574 40.2538 20.5986 40.1136 20.1752C39.9288 19.6175 40.1146 19.1873 40.2765 18.7012C40.5305 17.9382 40.9066 16.7515 40.1136 16.6471C39.718 16.595 39.5525 16.6471 39.1646 17.028C38.2234 17.9521 38.2841 19.0555 37.1692 19.7574C36.4259 20.2253 35.0316 20.4482 35.0316 20.4482C34.6123 20.5115 34.3836 20.8836 34.3641 21.3098C34.3391 21.8548 35.3459 22.2976 35.3459 22.2976C35.3459 22.2976 35.1629 23.5468 34.924 24.2678C34.363 25.9613 34.2228 26.9492 34.2228 26.9492L34.3641 28.366Z" fill="#A4D9B0"/>
<path d="M42.2185 28.366C42.2185 28.366 42.454 29.2032 42.7795 29.6361C43.0842 30.0413 43.3214 30.2334 43.7613 30.4828C44.2595 30.7653 44.596 30.8387 45.1639 30.9062C45.8189 30.9841 46.2132 30.9488 46.847 30.7651C47.3855 30.609 47.6789 30.4223 48.1221 30.1404C48.1632 30.1143 48.2056 30.0873 48.2495 30.0595C48.5758 29.853 48.7906 29.6698 49.0243 29.4704L49.7924 28.6482L49.7913 27.0903C49.7913 27.0903 49.0472 28.2193 47.8277 28.2193C47.1359 28.2193 46.8604 27.5806 46.7515 27.0279C46.6426 26.4752 46.8135 25.1997 46.9872 24.4145C47.1609 23.6293 47.5472 22.4332 47.5472 22.4332C47.7191 22.1632 48.2495 22.0154 48.2495 22.0154C48.2495 22.0154 48.768 21.9976 49.09 21.9245C49.4604 21.8403 49.5108 21.4453 49.5108 21.0219C49.5108 20.6691 49.2303 20.4575 48.8095 20.4575C48.4631 20.4575 48.1082 20.5986 47.968 20.1752C47.7832 19.6175 47.969 19.1873 48.1309 18.7012C48.3849 17.9382 48.761 16.7515 47.968 16.6471C47.5724 16.595 47.4069 16.6471 47.019 17.028C46.0778 17.9521 46.1374 19.0555 45.0226 19.7574C43.9077 20.4592 42.886 20.4482 42.886 20.4482C42.4667 20.5115 42.238 20.8836 42.2185 21.3098C42.1935 21.8548 43.2003 22.2976 43.2003 22.2976C43.2003 22.2976 42.9677 23.5041 42.7785 24.2678C42.5017 25.3844 41.9369 27.0903 41.9369 27.0903L42.2185 28.366Z" fill="#A4D9B0"/>
<path d="M73.4948 24.2678C74.2813 23.5733 74.2704 22.5141 73.7753 21.5864C73.2802 20.6588 72.513 20.4575 71.3909 20.3163C70.0225 20.1442 69.1738 20.2502 67.8855 20.7453C66.4936 21.2802 65.6362 21.7624 64.7999 23.0033C63.8292 24.4435 63.6768 25.2557 63.9583 27.3781L64.2378 28.6427C64.2378 28.6427 65.4565 30.0054 66.483 30.4828C67.7836 31.0878 68.7096 31.1009 70.1286 30.9006C71.1578 30.7554 71.7385 30.5501 72.6532 30.0539C73.6472 29.5147 74.8974 28.2193 74.8974 28.2193L74.6406 26.8777C74.6406 26.8777 72.0857 29.28 70.4102 28.6482C69.393 28.2647 68.7876 27.7043 68.4455 26.6669C68.1034 25.6295 68.7575 23.1614 69.5676 22.4332C69.7203 22.2274 70.6896 21.4453 71.1104 21.8687C71.2702 22.0294 71.2887 22.2181 71.2517 22.4332C71.2147 22.6483 70.6556 23.0702 70.6896 23.5622C70.7301 24.1466 71.1308 24.4738 71.6714 24.6912C72.35 24.964 72.9455 24.7528 73.4948 24.2678Z" fill="#A4D9B0"/>
<path d="M55.2624 21.8687C55.3051 21.1426 54.9503 20.4074 54.2221 20.356C53.7456 20.3223 53.1814 20.3795 52.5965 20.4482C51.4744 20.5802 50.8731 20.4988 50.6329 21.3042C50.5059 21.7298 50.7024 22.1686 50.7731 22.4332C50.8438 22.6978 49.7913 27.0903 49.7913 27.0903L49.7924 28.6482C49.7924 28.6482 49.9324 29.7133 50.3523 30.2006C50.9878 30.938 51.8 30.9272 52.8 30.9533C53.7907 30.9792 54.3708 30.7417 55.2624 30.3417C56.154 29.9418 57.2249 28.7838 57.2249 28.7838C57.2249 28.7838 57.3652 30.3303 58.9091 30.7651C60.453 31.1999 61.4275 30.9967 62.696 30.2006C63.4201 29.7462 64.2378 28.6427 64.2378 28.6427L63.9583 27.3781C63.9583 27.3781 63.1865 28.3087 62.5547 28.2193C61.9016 28.1268 61.6077 27.589 61.4327 26.9492C61.3041 26.4791 62.0456 23.8056 62.4483 22.4197C62.6098 21.8638 62.8741 21.2231 62.5547 20.7397C62.2972 20.3499 61.7517 20.3077 61.2835 20.3219C60.8517 20.335 60.3054 20.3698 59.8898 20.4574C59.8898 20.4574 59.0873 20.5297 58.6275 20.7397C58.2679 20.904 57.9244 20.9344 57.786 21.3042C57.6454 21.6799 57.8961 21.9372 58.0665 22.2921C58.2369 22.6469 58.0665 24.1323 57.2249 26.1024C56.7347 27.2501 56.1029 28.2193 54.8416 28.2193C53.5804 28.2193 54.2795 25.5435 54.2795 25.5435C54.2795 25.5435 55.1751 23.3522 55.2624 21.8687Z" fill="#A4D9B0"/>
<path fill-rule="evenodd" clip-rule="evenodd" d="M86.2582 26.9492C85.9777 26.6669 85.5569 26.9492 85.5569 26.9492C85.5569 26.9492 84.0031 28.3837 82.7518 28.6427C82.001 28.798 81.5051 28.9236 80.7892 28.6482C80.2043 28.4233 79.7862 28.2278 79.5258 27.6548C79.3657 27.3024 79.3867 26.6725 79.3867 26.6725C79.3867 26.6725 80.2052 26.5593 80.5807 26.4942C80.9562 26.4291 81.2232 26.3828 81.6308 26.2491C82.1436 26.0809 82.4396 25.9787 82.8931 25.6846C83.2527 25.4514 83.4355 25.2868 83.7346 24.979C84.1175 24.5849 84.3893 24.2638 84.5762 23.85C84.763 23.4362 85.1361 22.2921 84.2946 21.1631C83.453 20.0341 80.053 20.2053 78.9648 20.5986C77.8766 20.9918 77.257 21.3331 76.4412 22.1565C75.4722 23.1347 75.0389 23.9119 74.7582 25.2612C74.6292 25.881 74.6406 26.8777 74.6406 26.8777L74.8974 28.2193L74.8984 28.2249C75.1326 28.7724 75.319 29.0755 75.74 29.495C76.0747 29.8286 76.3095 29.9711 76.7218 30.2006C77.2827 30.5129 77.9195 30.6242 78.5451 30.7651C79.2079 30.9143 79.6132 30.9115 80.2657 30.9069L80.3684 30.9062C81.028 30.902 81.4116 30.9258 82.0515 30.7651L82.0814 30.7576C82.7722 30.5847 85.1125 29.5835 86.2582 27.6548C86.4006 27.4151 86.5387 27.2314 86.2582 26.9492ZM80.2271 22.4332C79.4064 23.259 79.2453 25.2557 79.2453 25.2557C79.2453 25.2557 81.2089 24.8323 81.77 23.8444C81.776 23.8337 81.7822 23.823 81.7883 23.8122L81.8181 23.7598C82.1969 23.0957 82.6298 22.3366 82.0505 21.8687C81.4695 21.3995 80.7881 21.8687 80.2271 22.4332Z" fill="#A4D9B0"/>
<path fill-rule="evenodd" clip-rule="evenodd" d="M11.1257 15.6335C11.179 15.4941 11.3339 15.4223 11.4756 15.4705C11.9232 15.6226 12.8742 15.9328 13.6049 16.0826C14.4787 16.2617 15.9904 16.3704 15.9904 16.3704C15.9904 16.3704 16.8521 12.4131 17.8137 10.0198C17.9201 9.75511 18.0202 9.50225 18.1165 9.25908L18.1168 9.25834L18.1169 9.25803C18.86 7.3813 19.3743 6.08235 20.7591 4.37485C21.8866 2.98467 22.5648 2.14664 24.1253 1.27012C25.7585 0.352781 26.4 -5.92071e-07 28.7538 0C31.1076 5.92072e-07 33.7532 1.42818 34.6446 3.38698C35.536 5.34578 35.3269 8.38967 33.6875 10.8163C31.5589 13.967 26.8125 16.6471 26.8125 16.6471L22.7227 18.4873C22.7227 18.4873 22.1598 20.5625 21.7409 21.8743C21.2428 23.4343 20.9435 24.3045 20.3383 25.8257C20.3008 25.9201 20.2643 26.012 20.2287 26.1015L20.2274 26.1048C19.6937 27.4482 19.3609 28.2859 18.6553 29.6361C18.3928 30.1383 17.954 30.9062 17.954 30.9062C17.954 30.9062 20.2501 31.718 21.7409 32.1763C23.5327 32.7272 24.5488 33.0014 26.3694 33.4465C30.2329 34.391 32.4649 34.7096 36.3745 35.2677L36.4679 35.2811C40.0133 35.7872 42.0106 36.0469 45.5846 36.2689C49.0591 36.4848 51.0949 36.4591 54.4268 36.417L54.9819 36.4101C58.9287 36.3611 61.1442 36.2819 65.0804 35.9867C68.3197 35.7438 70.1374 35.5844 73.3556 35.1399C76.2728 34.737 77.8982 34.4323 80.7892 33.8698C81.4198 33.7471 81.9712 33.6562 82.4894 33.5708C83.6873 33.3734 84.7154 33.0175 86.1179 32.5941C86.808 32.3858 87.6283 31.7994 87.9413 32.3119C88.3278 32.9448 86.68 33.7287 86.68 33.7287C86.68 33.7287 84.9511 34.5593 83.9885 34.8993C83.7775 34.9738 83.5546 35.0526 83.3138 35.1399C81.6483 35.7443 80.5114 36.0162 79.0471 36.3663L79.0462 36.3665C78.6314 36.4657 78.1903 36.5712 77.7035 36.6923C75.4716 37.2476 74.2123 37.5332 71.953 37.9624C68.5277 38.6131 66.5824 38.8555 63.1168 39.2325C59.1322 39.666 56.8848 39.8445 52.878 39.9382C47.8922 40.0548 45.076 40.0242 40.1146 39.5148C35.0262 38.9924 32.1858 38.4526 27.2109 37.2568C24.6211 36.6343 22.9441 36.1218 20.7801 35.4604L20.779 35.4601L20.7786 35.46C20.167 35.273 19.5165 35.0742 18.7955 34.8577C17.5337 34.4787 15.5696 33.8698 15.5696 33.8698C15.5696 33.8698 14.3344 34.8085 13.4657 35.2811C12.0332 36.0604 11.1369 36.3781 9.53854 36.6923C7.81746 37.0306 6.76958 37.181 5.05031 36.8334C4.99066 36.8214 4.93178 36.8095 4.87364 36.7978L4.86875 36.7969C3.45197 36.5119 2.47386 36.3151 1.40362 35.2811C0.953164 34.8458 0.699973 34.5736 0.421823 34.011C0.120069 33.4006 -0.0133606 32.999 0.00105132 32.3175C0.0143359 31.6892 0.116277 31.3131 0.421823 30.7651C0.762908 30.1533 1.10015 29.8781 1.68414 29.495C2.45327 28.9904 3.0262 28.8206 3.92825 28.6482C4.78174 28.4851 5.26691 28.4919 5.97678 28.5017L5.97719 28.5017C6.16345 28.5043 6.3652 28.5071 6.59313 28.5071C7.68998 28.5071 8.4585 28.5969 9.53854 28.7894C10.4943 28.9596 11.9229 29.495 11.9229 29.495C11.9229 29.495 12.6335 27.8717 13.045 26.8136C13.7204 25.077 14.0602 24.0854 14.5878 22.2976C15.0227 20.824 15.5696 18.4873 15.5696 18.4873C15.5696 18.4873 13.3704 18.3885 12.0632 17.9228C11.6268 17.7673 11.046 17.4841 10.7364 17.3279C10.6124 17.2654 10.5575 17.1199 10.607 16.9906L11.1257 15.6335ZM25.3876 7.33846C27.6317 1.41124 30.5771 2.96361 30.5771 2.96361C33.0996 4.23263 31.8953 6.95033 30.826 9.36353C30.7062 9.63398 30.0519 10.7241 29.425 11.5013C27.5316 13.8486 23.0032 15.8059 23.0032 15.8059C23.0032 15.8059 24.1353 10.646 25.3876 7.33846ZM5.8908 31.1728C7.71415 31.1728 10.2388 32.1708 10.2388 32.1708C10.2388 32.1708 7.71415 34.2876 5.8908 34.2876C4.50837 34.2876 2.74788 33.7996 2.9454 32.453C3.12835 31.2058 4.65851 31.1728 5.8908 31.1728Z" fill="#A4D9B0"/>
</svg>
